<svg xmlns="http://www.w3.org/2000/svg" viewBox="0 0 512 512">
  <defs>
    <linearGradient id="gearGradient" x1="0%" y1="0%" x2="100%" y2="100%">
      <stop offset="0%" style="stop-color:#ff9d00;stop-opacity:1" />
      <stop offset="100%" style="stop-color:#ff6b00;stop-opacity:1" />
    </linearGradient>
  </defs>
  <path fill="url(#gearGradient)" d="M480 256c0-14.7-4.1-28.5-11-40.4l34.4-34.4c12.5-12.5 12.5-32.8 0-45.3l-31.2-31.2c-12.5-12.5-32.8-12.5-45.3 0l-34.4 34.4c-11.9-6.9-25.7-11-40.4-11V80c0-17.7-14.3-32-32-32h-44.1c-17.7 0-32 14.3-32 32v48.1c-14.7 0-28.5 4.1-40.4 11l-34.4-34.4c-12.5-12.5-32.8-12.5-45.3 0l-31.2 31.2c-12.5 12.5-12.5 32.8 0 45.3l34.4 34.4c-6.9 11.9-11 25.7-11 40.4H80c-17.7 0-32 14.3-32 32v44.1c0 17.7 14.3 32 32 32h48.1c0 14.7 4.1 28.5 11 40.4l-34.4 34.4c-12.5 12.5-12.5 32.8 0 45.3l31.2 31.2c12.5 12.5 32.8 12.5 45.3 0l34.4-34.4c11.9 6.9 25.7 11 40.4 11V432c0 17.7 14.3 32 32 32h44.1c17.7 0 32-14.3 32-32v-48.1c14.7 0 28.5-4.1 40.4-11l34.4 34.4c12.5 12.5 32.8 12.5 45.3 0l31.2-31.2c12.5-12.5 12.5-32.8 0-45.3l-34.4-34.4c6.9-11.9 11-25.7 11-40.4H432c17.7 0 32-14.3 32-32v-44.1c0-17.7-14.3-32-32-32h-48.1zM256 336c-44.2 0-80-35.8-80-80s35.8-80 80-80 80 35.8 80 80-35.8 80-80 80z"/>
</svg>
